<?xml version="1.0" encoding="utf-8"?>
<!-- Generator: Adobe Illustrator 23.0.3, SVG Export Plug-In . SVG Version: 6.00 Build 0)  -->
<svg version="1.1" id="Layer_1" xmlns="http://www.w3.org/2000/svg" xmlns:xlink="http://www.w3.org/1999/xlink" x="0px" y="0px"
	 viewBox="0 0 512 512" style="enable-background:new 0 0 512 512;" xml:space="preserve">
<style type="text/css">
	.st0{fill:#040404;}
	.st1{fill:#F66292;}
	.st2{fill:#FFFFFF;}
	.st3{fill:url(#SVGID_1_);}
	.st4{fill:url(#SVGID_2_);}
	.st5{fill:url(#SVGID_3_);}
	.st6{fill:url(#SVGID_4_);}
	.st7{fill:url(#SVGID_5_);}
	.st8{fill:url(#SVGID_6_);}
	.st9{fill:url(#SVGID_7_);}
	.st10{fill:url(#SVGID_8_);}
	.st11{fill:url(#SVGID_9_);}
	.st12{fill:url(#SVGID_10_);}
	.st13{fill:url(#SVGID_11_);}
	.st14{fill:url(#SVGID_12_);}
	.st15{fill:url(#SVGID_13_);}
	.st16{fill:url(#SVGID_14_);}
	.st17{fill:url(#SVGID_15_);}
	.st18{fill:url(#SVGID_16_);}
	.st19{fill:url(#SVGID_17_);}
	.st20{fill:url(#SVGID_18_);}
	.st21{fill:url(#SVGID_19_);}
	.st22{fill:url(#SVGID_20_);}
	.st23{fill:url(#SVGID_21_);}
	.st24{fill:url(#SVGID_22_);}
	.st25{fill:url(#SVGID_23_);}
	.st26{fill:url(#SVGID_24_);}
	.st27{fill:url(#SVGID_25_);}
	.st28{fill:url(#SVGID_26_);}
	.st29{fill:url(#SVGID_27_);}
	.st30{fill:url(#SVGID_28_);}
	.st31{fill:url(#SVGID_29_);}
	.st32{fill:url(#SVGID_30_);}
	.st33{fill:url(#SVGID_31_);}
	.st34{fill:url(#SVGID_32_);}
	.st35{fill:url(#SVGID_33_);}
	.st36{fill:url(#SVGID_34_);}
	.st37{fill:url(#SVGID_35_);}
	.st38{fill:url(#SVGID_36_);}
	.st39{fill:url(#SVGID_37_);}
	.st40{fill:url(#SVGID_38_);}
	.st41{fill:url(#SVGID_39_);}
	.st42{fill:url(#SVGID_40_);}
	.st43{fill:url(#SVGID_41_);}
	.st44{fill:url(#SVGID_42_);}
	.st45{fill:url(#SVGID_43_);}
	.st46{fill:url(#SVGID_44_);}
	.st47{fill:url(#SVGID_45_);}
	.st48{fill:url(#SVGID_46_);}
	.st49{fill:url(#SVGID_47_);}
	.st50{fill:url(#SVGID_48_);}
	.st51{fill:url(#SVGID_49_);}
	.st52{fill:url(#SVGID_50_);}
	.st53{fill:url(#SVGID_51_);}
	.st54{fill:url(#SVGID_52_);}
	.st55{fill:url(#SVGID_53_);}
	.st56{fill:url(#SVGID_54_);}
	.st57{fill:url(#SVGID_55_);}
	.st58{fill:#0B8DFF;}
	.st59{fill:#FF7E2A;}
	.st60{fill:#F18585;}
	.st61{fill:#44BFC7;}
	.st62{fill:#669ACC;}
	.st63{fill:#D696BB;}
	.st64{fill:#7545FD;}
	.st65{fill:#FFC301;}
	.st66{fill:#EC3843;}
	.st67{fill:#0B8DA3;}
	.st68{fill:#A895CD;}
	.st69{fill:#12D316;}
	.st70{fill:#61BA5E;}
	.st71{fill:#20CDF7;}
	.st72{fill:#F33A64;}
	.st73{fill:#7BC7A3;}
	.st74{fill:#020202;}
	.st75{fill:#030303;}
	.st76{fill:#0D0D0D;}
	.st77{fill:#0A0A0A;}
	.st78{fill:#050505;}
	.st79{fill:#080808;}
	.st80{fill:#060606;}
	.st81{fill:#F9CDBD;}
	.st82{fill:#1C0000;}
	.st83{fill:#FD598B;}
	.st84{fill:#F9F9F9;}
	.st85{fill:#F7F7F7;}
	.st86{fill:#250103;}
	.st87{fill:#F0658F;}
</style>
<g>
	<path class="st75" d="M405.6,379.9c-3.1-56-40.3-98.5-95.8-107.2c-30.4-4.8-61.4-2-92.1-1.4c-44.2,0.8-77,21.8-98.6,60.4
		c-14.6,26.2-14.3,54.9-11.6,83.4c1.5,15.7,16.3,27.6,32.9,28c30.7,0.6,61.5,0.2,92.3,0.3c9.5,0,16.6-9.8,23.4-9.6
		c7.1,0.2,14.1,9.7,23.7,9.7c15.2-0.1,30.3,0,45.5,0c0,0,0,0,0,0.1c14.3,0,28.5,0.3,42.8-0.1c22.6-0.6,36.6-14.3,37.6-36.7
		C406,397.7,406.1,388.8,405.6,379.9z M159.5,316.7c13,0.2,23.3,11,23,24.2c-0.3,12.6-10.5,22.9-22.9,23.1
		c-12.9,0.2-23.7-10.5-23.7-23.7C135.9,327,146.4,316.5,159.5,316.7z M228.8,430.4c-28.1,0.3-56.2,0.4-84.2,0
		c-16.3-0.3-24.8-8.9-24.8-25.1c0-16.6-1.9-33.5,4.6-51.1c10.6,17.1,24.2,26,44,21.5c5.4-1.2,3.9,3.1,4.4,5.9
		c1.6,8.9,7.3,12.6,16.1,12.6c13.4-0.1,26.8-0.2,40.1,0.1c12.8,0.3,20.2,7.2,20.2,18.2C249.1,423.2,241.7,430.2,228.8,430.4z
		 M242.2,383.7c-13.9-6.7-29.9-2.5-44.9-2.6c-12.8-0.1-13.6-5.3-8.1-14c11.6-18.6,23-36.9,25.5-59.5c0.7-6.3,7.4-8.6,13.8-7.5
		c5.9,1,9.6,4.8,9.9,10.9c0.6,9.5-2.1,18.5-5,27.4c-4.3,13.1-2.6,15.3,11.7,15.4c4.5,0,8.9,0,13.4,0c4.5,0,8.9,0,13.4,0
		c9.4,0,18.7,0.1,28.1,0c6.5,0,12.3,2.2,17.1,6.4c5.6,4.9,10.3,11.8,7.8,18.6c-1.8,4.9-9.5,1.6-14.6,2.1c-13.7,1.2-28.8-4.1-40.8,3
		C258.8,390.3,252.3,388.5,242.2,383.7z M347.4,430.5c-20.5,0-41,0.1-61.5,0c-14.7-0.1-23.2-7-23.2-18.2c0-11.2,8.6-18,23.2-18.1
		c12-0.1,24.1,0.1,36.1,0c14.4-0.2,20-7.6,16.8-21.7c-4.2-18.5-19-31.1-38-31.6c-17.4-0.4-34.7-0.1-53.3-0.1
		c6.5-35.7,3.1-50.1-14.6-53.2c-31.9-5.6-31.4,20.9-37.1,44c-7.2-17-17.8-25.4-34.6-28.5c17.8-12.4,35.3-18.4,54.7-18.7
		c25-0.4,49.9-0.2,74.9-0.1c57.1,0.3,99.9,41.5,102.2,98.4C394.6,425.7,390.1,430.5,347.4,430.5z"/>
	<path class="st75" d="M346.1,235.9c-2.8-29.7-4.2-59.6-6.7-89.3c-3.7-43.6-37.7-76.2-80.7-78c-40.5-1.7-79.5,28.8-84.6,68.6
		c-4.3,33.6-5.6,67.5-8.6,101.2c-0.8,9,2.9,11.7,11.4,11.5c26.3-0.4,52.6-0.1,78.9-0.1c25.9,0,51.7-0.5,77.6,0.2
		C344.6,250.3,347.1,246.5,346.1,235.9z M323.2,236.9c-22.7-0.5-45.5-0.2-68.2-0.2c-22.3,0-44.6-0.2-66.9,0.1
		c-6.6,0.1-9.5-1.3-8.8-8.8c2.7-28.4,3.9-56.9,7.4-85.2c4.4-35.8,34.8-61.7,69.6-61.3c35,0.3,65.3,26.5,69.5,61.9
		c3.2,27.9,4.2,56,6.6,83.9C333.1,235.1,330.7,237,323.2,236.9z"/>
</g>
</svg>
